<svg width="40" height="40" viewBox="0 0 40 40" fill="none" xmlns="http://www.w3.org/2000/svg">
<path d="M11.6484 5.0625L10.8359 7.5H5C2.24219 7.5 0 9.74219 0 12.5V32.5C0 35.2578 2.24219 37.5 5 37.5H35C37.7578 37.5 40 35.2578 40 32.5V12.5C40 9.74219 37.7578 7.5 35 7.5H29.1641L28.3516 5.0625C27.8438 3.53125 26.4141 2.5 24.7969 2.5H15.2031C13.5859 2.5 12.1562 3.53125 11.6484 5.0625ZM20 15C21.9891 15 23.8968 15.7902 25.3033 17.1967C26.7098 18.6032 27.5 20.5109 27.5 22.5C27.5 24.4891 26.7098 26.3968 25.3033 27.8033C23.8968 29.2098 21.9891 30 20 30C18.0109 30 16.1032 29.2098 14.6967 27.8033C13.2902 26.3968 12.5 24.4891 12.5 22.5C12.5 20.5109 13.2902 18.6032 14.6967 17.1967C16.1032 15.7902 18.0109 15 20 15Z" fill="#B8BFC7" fill-opacity="0.3"/>
</svg>
