<svg width="46" height="46" viewBox="0 0 46 46" fill="none" xmlns="http://www.w3.org/2000/svg">
<circle cx="23" cy="23" r="20.5083" stroke="#A29C9B" stroke-opacity="0.3" stroke-width="4.98333"/>
<mask id="path-2-inside-1_130_126" fill="white">
<path d="M46 23C46 27.8144 44.4892 32.5075 41.6806 36.4177C38.872 40.328 34.9071 43.2583 30.3448 44.7957L28.7036 39.9256C32.2465 38.7317 35.3255 36.4561 37.5065 33.4196C39.6876 30.3831 40.8608 26.7387 40.8608 23H46Z"/>
</mask>
<path d="M46 23C46 27.8144 44.4892 32.5075 41.6806 36.4177C38.872 40.328 34.9071 43.2583 30.3448 44.7957L28.7036 39.9256C32.2465 38.7317 35.3255 36.4561 37.5065 33.4196C39.6876 30.3831 40.8608 26.7387 40.8608 23H46Z" fill="#DB324D" stroke="#DB324D" stroke-width="3.06667" mask="url(#path-2-inside-1_130_126)"/>
</svg>
